<svg version="1.1" id="Layer_1" xmlns="http://www.w3.org/2000/svg" xmlns:xlink="http://www.w3.org/1999/xlink" x="0px" y="0px"
	 width="100%" viewBox="0 0 500 500" enable-background="new 0 0 500 500" xml:space="preserve">
<path fill="#000000" opacity="1.000000" stroke="none" 
	d="
M282.000000,501.000000 
	C188.000015,501.000000 94.500046,501.000000 1.000050,501.000000 
	C1.000033,334.333405 1.000033,167.666794 1.000017,1.000140 
	C167.666565,1.000093 334.333130,1.000093 500.999756,1.000046 
	C500.999847,167.666519 500.999847,334.333038 500.999939,500.999786 
	C428.166656,501.000000 355.333344,501.000000 282.000000,501.000000 
M205.916489,245.462738 
	C205.618973,245.288620 205.321472,245.114517 205.003448,244.995834 
	C205.003448,244.995834 205.058502,244.974335 204.913437,244.461670 
	C204.616806,244.287949 204.320175,244.114243 204.003204,243.995880 
	C204.003204,243.995880 204.058533,243.975525 203.910843,243.462662 
	C203.614410,243.286087 203.317993,243.109512 203.006165,242.992477 
	C203.006165,242.992477 203.065918,242.977905 202.907990,242.465012 
	C202.611786,242.282883 202.315582,242.100769 201.742661,241.296722 
	C190.660492,228.909866 179.578323,216.523010 167.594467,203.128311 
	C179.707886,203.108231 187.958313,198.529037 194.291733,191.049545 
	C202.601288,181.236374 206.326431,169.733887 206.112579,156.619156 
	C205.753098,134.573090 189.860474,119.939468 168.232712,117.011826 
	C167.158112,117.076958 166.083496,117.142082 164.532196,117.058632 
	C164.532196,117.058632 164.039642,116.976768 163.662003,116.179390 
	C143.228867,116.121780 122.795738,116.051819 102.362602,116.052887 
	C101.566124,116.052933 100.769669,116.733292 99.296532,117.417816 
	C99.858498,117.934723 100.398918,118.875053 100.985672,118.904922 
	C109.574936,119.342041 114.534691,124.180923 117.030487,132.905411 
	C117.019966,141.220901 116.991112,149.536438 117.002136,157.851898 
	C117.047745,192.275223 117.105408,226.698563 116.795593,261.747803 
	C114.666527,270.916931 107.061356,273.068695 99.122063,275.140228 
	C101.509338,275.919983 103.574554,275.889221 105.638626,275.924927 
	C119.677513,276.167786 133.715881,276.452057 147.755722,276.599518 
	C148.488663,276.607239 149.233444,275.489319 150.444183,274.516663 
	C138.992096,273.208282 134.558441,269.964752 132.957108,261.207214 
	C132.971954,235.924347 132.968048,210.641434 133.007538,185.358612 
	C133.039474,164.904587 133.123642,144.450623 133.516342,124.020691 
	C133.516342,124.020691 133.803482,123.852844 134.778641,123.938423 
	C144.204437,123.872292 153.630249,123.806160 163.732483,124.131683 
	C174.695709,126.117676 182.031189,132.827148 185.305374,143.014938 
	C187.356369,149.396698 187.742722,156.472870 187.925797,163.263092 
	C188.335922,178.475067 177.567566,191.720505 161.857758,194.030548 
	C159.514572,194.375107 157.276505,195.434448 154.172577,195.984924 
	C149.195297,195.984924 144.218018,195.984924 139.240738,195.984924 
	C139.106430,196.503159 138.972137,197.021408 138.837830,197.539642 
	C140.550674,198.400436 142.263504,199.261230 144.143280,200.548767 
	C144.326874,200.821365 144.582199,200.973770 145.144318,201.637070 
	C147.078873,203.496109 149.013428,205.355148 151.248245,207.795761 
	C152.793945,209.304367 154.424561,210.736038 155.872070,212.333603 
	C168.463669,226.230682 181.032852,240.148117 193.586395,254.079575 
	C199.537186,260.683563 205.842346,267.019196 211.272583,274.029755 
	C220.204712,285.561340 230.669250,295.441467 242.465698,303.800354 
	C259.112244,315.595978 277.432343,321.011292 297.901947,315.976501 
	C299.605377,315.557526 301.272095,314.989258 302.955902,314.490356 
	C300.956665,313.221375 299.213104,313.049316 297.468353,313.036041 
	C285.616028,312.945862 274.946808,309.352631 265.148895,302.693634 
	C248.782883,291.570740 235.527573,277.095947 221.976837,262.492401 
	C221.667511,262.298126 221.358200,262.103851 221.017532,261.967499 
	C221.017532,261.967499 221.083206,261.972351 220.973892,261.420807 
	C220.657333,261.251526 220.340775,261.082245 220.017914,260.980377 
	C220.017914,260.980377 220.085464,260.975983 219.959534,260.432404 
	C219.646973,260.257111 219.334427,260.081818 219.019058,259.977478 
	C219.019058,259.977478 219.090042,259.979034 218.951447,259.439911 
	C218.640854,259.260681 218.330261,259.081421 218.018417,258.980560 
	C218.018417,258.980560 218.096817,258.980988 217.956390,258.445251 
	C217.653107,258.255615 217.349823,258.065979 216.889282,257.431274 
	C216.702042,257.146698 216.438553,256.991913 215.917191,256.460449 
	C215.617752,256.280853 215.318298,256.101257 215.010483,255.986404 
	C215.010483,255.986404 215.075180,255.977905 214.923416,255.458176 
	C214.621979,255.281525 214.320526,255.104858 214.009827,254.991135 
	C214.009827,254.991135 214.072235,254.978790 213.906677,254.470764 
	C213.609848,254.293900 213.313034,254.117035 213.001282,253.997253 
	C213.001282,253.997253 213.058289,253.982025 212.904510,253.471146 
	C212.608383,253.294052 212.312271,253.116959 212.001373,252.997192 
	C212.001373,252.997192 212.058670,252.982346 211.904419,252.471268 
	C211.608231,252.293655 211.312057,252.116043 211.001801,251.996719 
	C211.001801,251.996719 211.060150,251.982941 210.903534,251.469833 
	C210.607422,251.287491 210.311295,251.105133 209.943787,250.485703 
	C209.943787,250.485703 209.845825,250.053818 209.977615,249.493484 
	C209.667709,249.300797 209.357803,249.108109 209.015076,248.972153 
	C209.015076,248.972153 209.080643,248.971832 208.967590,248.424957 
	C208.653595,248.254898 208.339600,248.084854 208.018631,247.981262 
	C208.018631,247.981262 208.085083,247.974228 207.968231,247.425629 
	C207.652924,247.254440 207.337631,247.083252 207.017273,246.979874 
	C207.017273,246.979874 207.085159,246.975525 206.941132,246.448090 
	C206.635483,246.274460 206.329819,246.100830 206.011398,245.989090 
	C206.011398,245.989090 206.072693,245.973755 205.916489,245.462738 
M396.999390,254.000824 
	C396.999390,254.000824 397.062531,253.992401 396.891998,253.481598 
	C396.593811,253.299713 396.295654,253.117828 395.932495,252.524887 
	C395.932495,252.524887 395.825562,252.122726 395.931610,251.539459 
	C395.622803,251.324051 395.314026,251.108643 394.896606,250.486649 
	C394.896606,250.486649 394.799561,250.077148 394.996796,249.436691 
	C394.673767,248.945145 394.350739,248.453598 394.005707,248.005585 
	C394.005707,248.005585 394.046112,247.977570 393.970337,247.084793 
	C392.935577,236.794739 392.063507,226.485077 390.827911,216.219193 
	C388.970154,200.784393 386.857880,185.380234 384.930054,169.470642 
	C384.930054,169.470642 384.821808,168.984268 384.952118,168.143997 
	C381.928101,149.179626 381.142212,129.861053 377.247528,111.034485 
	C376.609314,111.022903 375.971100,111.011330 375.332886,110.999748 
	C374.628082,113.037918 373.923309,115.076088 373.099243,117.506744 
	C373.099243,117.506744 372.995239,117.903534 372.437836,118.070190 
	C372.358307,118.412689 372.278778,118.755196 372.098145,119.473618 
	C372.098145,119.473618 371.991638,119.848038 371.303741,120.126465 
	C370.182129,123.072906 369.060486,126.019348 367.989746,129.004532 
	C367.989746,129.004532 367.957764,128.949539 367.257874,129.168655 
	C365.907166,132.491882 364.556488,135.815094 363.094360,139.521057 
	C363.094360,139.521057 362.989563,139.905655 362.431091,140.072281 
	C362.358032,140.416046 362.285004,140.759811 362.121185,141.490875 
	C362.121185,141.490875 362.015106,141.874252 361.323212,142.131912 
	C360.300842,144.808136 359.278442,147.484344 358.132629,150.530014 
	C358.132629,150.530014 358.012512,150.900528 357.354187,151.107864 
	C356.949768,152.127548 356.545380,153.147232 356.042542,154.538910 
	C356.042542,154.538910 355.995331,154.920776 355.403107,155.176300 
	C354.910248,156.773361 354.417389,158.370407 353.978088,160.003876 
	C353.978088,160.003876 353.957520,159.942474 353.308716,160.199753 
	C352.879486,161.472260 352.450256,162.744781 352.000000,164.000000 
	C352.000000,164.000000 352.019226,164.018387 351.432343,164.227951 
	C351.280243,164.820496 351.128143,165.413040 351.006165,166.010818 
	C351.006165,166.010818 350.998322,165.981308 350.411133,166.203568 
	C350.252411,166.799667 350.093719,167.395767 349.994324,167.998322 
	C349.994324,167.998322 349.956573,167.952087 349.308746,168.240387 
	C348.945648,169.550201 348.582550,170.860016 348.100128,172.529129 
	C348.100128,172.529129 347.979645,172.888016 347.391296,173.047714 
	C347.314270,173.408600 347.237274,173.769470 347.077362,174.550095 
	C347.077362,174.550095 347.028320,174.975113 346.389740,175.283981 
	C345.670929,177.234589 344.952118,179.185211 344.082336,181.535278 
	C344.082336,181.535278 343.951599,181.941818 343.295837,182.236084 
	C342.006317,184.850815 340.586334,187.410583 339.456360,190.092529 
	C337.529602,194.665543 335.784973,199.315292 333.937103,203.943375 
	C333.937103,203.943375 333.921844,203.967728 333.263336,204.238190 
	C329.896301,212.157883 326.529297,220.077591 322.999573,228.470245 
	C322.960083,228.632248 322.920624,228.794235 322.259247,229.256119 
	C321.228180,231.515335 320.197113,233.774567 319.055908,236.460892 
	C319.055908,236.460892 318.960449,236.891510 318.339203,236.756210 
	C317.578033,235.823456 316.816864,234.890686 316.005493,233.996948 
	C316.005493,233.996948 316.047211,233.949539 315.963226,233.194534 
	C311.732788,223.714218 307.610779,214.183426 303.230103,204.773056 
	C300.718781,199.378296 297.787415,194.179092 294.980011,188.424820 
	C294.980011,188.424820 294.820953,187.980927 294.844147,187.472687 
	C294.568756,187.293274 294.293396,187.113876 293.961060,186.240372 
	C293.248505,184.826340 292.535980,183.412308 291.941650,181.248489 
	C285.982025,168.485168 280.022400,155.721848 273.898529,142.493134 
	C273.898529,142.493134 273.756195,142.020569 273.930298,141.296677 
	C269.598206,131.860901 265.291473,122.413208 260.884369,113.012596 
	C260.542267,112.282867 259.496185,111.883194 258.777283,111.330109 
	C258.246338,112.221451 257.715393,113.112801 257.033875,114.899216 
	C256.996399,117.922554 256.958954,120.945900 256.249268,124.408272 
	C255.889526,127.605057 255.529800,130.801849 255.032761,134.848801 
	C254.747360,137.565994 254.461960,140.283203 254.047791,143.744293 
	C254.088943,144.495514 254.130112,145.246719 254.055756,146.511520 
	C254.095047,146.682556 254.134323,146.853577 253.883072,147.622147 
	C253.647385,148.414062 253.411697,149.205994 253.035110,150.867767 
	C252.745895,153.912460 252.456680,156.957169 252.044617,160.746826 
	C252.087967,161.497818 252.131317,162.248795 252.065247,163.512466 
	C252.103180,163.683044 252.141113,163.853638 251.798981,164.728577 
	C250.941666,171.141327 250.084351,177.554062 249.097412,184.633942 
	C249.064774,185.085785 249.032135,185.537613 248.284775,186.448013 
	C248.093918,189.557220 248.024002,192.679565 247.687775,195.772980 
	C246.917953,202.855576 246.018036,209.924042 245.025406,217.890366 
	C244.738922,221.593750 244.452438,225.297134 244.038177,229.794464 
	C244.080688,230.863037 244.123199,231.931610 244.014832,233.437759 
	C244.014832,233.437759 243.937866,233.894150 243.389252,234.204849 
	C243.334198,234.806915 243.279160,235.408997 243.099670,236.662613 
	C243.047821,237.101227 242.995956,237.539856 242.248337,238.427475 
	C241.895569,241.992996 241.542801,245.558517 241.078690,249.499527 
	C241.078690,249.499527 240.961670,249.873260 240.441055,249.996460 
	C240.244293,250.281097 240.047531,250.565735 239.299484,251.157104 
	C239.164719,251.763474 239.029968,252.369843 238.409149,253.219620 
	C237.936417,253.759567 237.463684,254.299515 236.233109,254.922333 
	C231.846588,256.543091 227.460068,258.163818 223.073547,259.784546 
	C223.189896,260.011963 223.306244,260.239410 223.422577,260.466827 
	C236.852295,260.466827 250.282013,260.466827 263.711731,260.466827 
	C263.737823,260.181519 263.763916,259.896210 263.790009,259.610931 
	C261.202789,259.012878 258.615601,258.414856 255.706482,257.180298 
	C251.813751,254.239319 253.347626,249.898438 253.189758,245.309647 
	C253.404129,242.492279 253.618484,239.674896 253.946274,236.294327 
	C253.885498,235.919205 253.824722,235.544067 254.085144,234.377670 
	C254.336182,231.224747 254.587204,228.071838 254.974609,224.085571 
	C255.635986,217.750610 256.368134,211.421585 256.901611,205.075867 
	C257.014130,203.737701 256.398346,202.338303 256.065247,200.131729 
	C256.394989,196.124283 256.724731,192.116821 257.685272,187.702881 
	C257.732300,186.469376 257.779358,185.235855 257.964661,183.288086 
	C257.991333,182.561111 258.018005,181.834137 258.723694,180.660553 
	C259.781219,170.640228 260.838745,160.619919 262.007721,149.543884 
	C267.253662,160.489807 272.109741,170.332886 276.711853,180.293320 
	C283.462402,194.903580 290.029755,209.598465 296.677948,224.256027 
	C301.784363,235.514359 306.830200,246.801025 312.058228,258.002655 
	C313.114838,260.266571 314.868195,262.205322 316.060242,263.943878 
	C324.251465,245.478516 332.096375,227.866776 339.877197,210.226776 
	C344.691315,199.312653 349.245209,188.280930 354.215637,177.439407 
	C358.904938,167.211075 363.986542,157.162598 368.976318,147.779465 
	C369.039368,148.525696 369.102417,149.271927 369.054657,150.679245 
	C369.098328,151.122421 369.142029,151.565582 369.054291,152.853821 
	C369.391205,154.440567 369.894012,156.012360 370.038635,157.616440 
	C371.131104,169.731873 372.153168,181.853653 373.054291,194.720520 
	C373.099762,195.477066 373.145233,196.233597 373.053680,197.840942 
	C373.692719,202.566452 374.331787,207.291977 375.056366,212.671722 
	C375.110748,213.107300 375.165100,213.542892 375.042145,214.845596 
	C375.360992,217.568008 375.679810,220.290436 376.074554,223.670151 
	C376.140106,224.104889 376.205658,224.539612 376.102081,225.875504 
	C376.804199,234.605484 377.506317,243.335449 378.106201,252.651581 
	C378.066589,253.046051 378.027008,253.440521 377.351349,254.057114 
	C376.908081,255.039276 376.464813,256.021423 375.997101,256.994904 
	C375.997101,256.994904 376.005188,257.019257 375.237091,257.060242 
	C372.592865,257.991028 369.948639,258.921844 367.304413,259.852661 
	C371.848236,260.959991 376.359589,261.047180 380.866333,260.940430 
	C388.441620,260.761078 396.014008,260.458374 403.968231,260.749725 
	C404.622803,260.757050 405.277344,260.764374 406.657928,260.934601 
	C408.657959,260.934601 410.657990,260.934601 412.658051,260.934601 
	C412.667786,260.369507 412.677551,259.804382 412.687317,259.239288 
	C410.453979,259.136169 408.220673,259.033051 405.294861,258.774536 
	C402.900299,257.510986 400.505768,256.247437 397.915161,254.476196 
	C397.611816,254.296585 397.308502,254.116989 396.999390,254.000824 
M221.839737,122.556084 
	C222.280487,122.367920 222.708038,122.136124 223.164001,121.998276 
	C228.243698,120.462570 231.633698,116.418388 231.972961,111.466469 
	C232.369003,105.685562 229.920059,100.979401 225.437790,98.907791 
	C218.555344,95.726868 214.489380,96.102142 210.199310,100.371422 
	C206.098419,104.452431 204.831802,109.181183 207.053680,114.664360 
	C209.622101,121.002663 214.843872,122.811104 221.839737,122.556084 
M318.744507,308.678955 
	C317.239532,314.007050 316.931763,318.953644 322.155060,322.752167 
	C326.101807,325.622345 331.643707,325.763397 335.869202,322.713928 
	C338.823883,320.581573 340.398010,314.674835 339.043518,310.802826 
	C335.885376,301.775177 325.733795,300.301849 318.744507,308.678955 
z"/>
<path fill="#8C56F8" opacity="1.000000" stroke="none" 
	d="
M144.909271,201.005997 
	C144.582199,200.973770 144.326874,200.821365 144.040985,200.004349 
	C145.015961,198.646194 145.990509,197.388763 147.191772,197.110641 
	C149.728287,196.523376 152.383362,196.448303 154.989807,196.163116 
	C157.276505,195.434448 159.514572,194.375107 161.857758,194.030548 
	C177.567566,191.720505 188.335922,178.475067 187.925797,163.263092 
	C187.742722,156.472870 187.356369,149.396698 185.305374,143.014938 
	C182.031189,132.827148 174.695709,126.117676 163.000031,123.798615 
	C152.779556,123.594643 143.291519,123.723740 133.803482,123.852844 
	C133.803482,123.852844 133.516342,124.020691 133.083588,124.114952 
	C132.383942,124.472229 132.117035,124.735245 131.650970,125.359680 
	C131.297852,127.197266 131.010101,128.673370 131.009323,130.149628 
	C130.987183,172.339279 130.981491,214.528976 131.039474,256.718567 
	C131.041885,258.472076 131.683472,260.224731 132.230927,262.041138 
	C132.434586,262.104492 132.853821,262.183167 132.853821,262.183167 
	C134.558441,269.964752 138.992096,273.208282 150.444183,274.516663 
	C149.233444,275.489319 148.488663,276.607239 147.755722,276.599518 
	C133.715881,276.452057 119.677513,276.167786 105.638626,275.924927 
	C103.574554,275.889221 101.509338,275.919983 99.122063,275.140228 
	C107.061356,273.068695 114.666527,270.916931 117.167313,261.206757 
	C117.730736,260.111816 117.922432,259.557953 118.310707,258.642090 
	C118.666214,257.301910 118.963615,256.323822 118.964119,255.345566 
	C118.984749,215.234436 119.063904,175.122803 118.830856,135.012985 
	C118.809875,131.401764 117.073509,127.654549 115.517052,124.252663 
	C114.576988,122.198036 112.446480,120.688087 109.998199,117.995705 
	C113.183228,117.995705 114.974648,117.995712 116.766075,117.995697 
	C130.247421,117.995613 143.728928,118.028343 157.209930,117.958977 
	C159.162567,117.948929 161.112686,117.449371 163.305450,117.114471 
	C163.546921,117.052597 164.039642,116.976768 164.039642,116.976768 
	C164.039642,116.976768 164.532196,117.058632 165.035583,117.294098 
	C166.704239,117.397583 167.869507,117.265610 169.034760,117.133644 
	C189.860474,119.939468 205.753098,134.573090 206.112579,156.619156 
	C206.326431,169.733887 202.601288,181.236374 194.291733,191.049545 
	C187.958313,198.529037 179.707886,203.108231 167.594467,203.128311 
	C179.578323,216.523010 190.660492,228.909866 202.017822,241.818695 
	C202.550629,242.553070 202.808273,242.765488 203.065918,242.977905 
	C203.065918,242.977905 203.006165,242.992477 203.149460,243.171295 
	C203.504654,243.611679 203.759918,243.820145 204.058533,243.975525 
	C204.058533,243.975525 204.003204,243.995880 204.148438,244.175644 
	C204.505356,244.615143 204.760315,244.821457 205.058502,244.974335 
	C205.058502,244.974335 205.003448,244.995834 205.151184,245.175781 
	C205.513977,245.615372 205.771912,245.821396 206.072693,245.973755 
	C206.072693,245.973755 206.011398,245.989090 206.160034,246.166016 
	C206.567505,246.553787 206.826324,246.764664 207.085159,246.975525 
	C207.085159,246.975525 207.017273,246.979874 207.165955,247.152557 
	C207.571457,247.541565 207.828262,247.757904 208.085083,247.974228 
	C208.085083,247.974228 208.018631,247.981262 208.167053,248.153595 
	C208.570541,248.541214 208.825592,248.756531 209.080643,248.971832 
	C209.080643,248.971832 209.015076,248.972153 209.132629,249.154480 
	C209.414810,249.603973 209.613373,249.842972 209.845825,250.053818 
	C209.845825,250.053818 209.943787,250.485703 210.116745,250.914886 
	C210.546524,251.557007 210.803329,251.769974 211.060150,251.982941 
	C211.060150,251.982941 211.001801,251.996719 211.146301,252.175690 
	C211.504547,252.615509 211.760498,252.824738 212.058670,252.982346 
	C212.058670,252.982346 212.001373,252.997192 212.146057,253.176422 
	C212.504318,253.616241 212.760162,253.825027 213.058289,253.982025 
	C213.058289,253.982025 213.001282,253.997253 213.148209,254.176636 
	C213.554169,254.563614 213.813202,254.771210 214.072235,254.978790 
	C214.072235,254.978790 214.009827,254.991135 214.155060,255.168182 
	C214.558609,255.556122 214.816895,255.767014 215.075180,255.977905 
	C215.075180,255.977905 215.010483,255.986404 215.157654,256.164734 
	C215.569489,256.551025 215.834167,256.758972 216.098831,256.966919 
	C216.438553,256.991913 216.702042,257.146698 217.105194,257.870697 
	C217.579666,258.533722 217.838242,258.757355 218.096817,258.980988 
	C218.096817,258.980988 218.018417,258.980560 218.166183,259.150452 
	C218.572647,259.539917 218.831345,259.759491 219.090042,259.979034 
	C219.090042,259.979034 219.019058,259.977478 219.166260,260.150085 
	C219.570801,260.540466 219.828125,260.758240 220.085464,260.975983 
	C220.085464,260.975983 220.017914,260.980377 220.167145,261.152252 
	C220.571976,261.540222 220.827591,261.756287 221.083206,261.972351 
	C221.083206,261.972351 221.017532,261.967499 221.137604,262.149353 
	C221.425690,262.598602 221.625351,262.839752 221.856674,263.054688 
	C235.527573,277.095947 248.782883,291.570740 265.148895,302.693634 
	C274.946808,309.352631 285.616028,312.945862 297.468353,313.036041 
	C299.213104,313.049316 300.956665,313.221375 302.955902,314.490356 
	C301.272095,314.989258 299.605377,315.557526 297.901947,315.976501 
	C277.432343,321.011292 259.112244,315.595978 242.465698,303.800354 
	C230.669250,295.441467 220.204712,285.561340 211.272583,274.029755 
	C205.842346,267.019196 199.537186,260.683563 193.586395,254.079575 
	C181.032852,240.148117 168.463669,226.230682 155.872070,212.333603 
	C154.424561,210.736038 152.793945,209.304367 151.081009,207.125397 
	C150.421661,202.975433 148.390396,201.191895 144.909271,201.005997 
z"/>
<path fill="#5D19E5" opacity="1.000000" stroke="none" 
	d="
M248.999496,185.989456 
	C249.032135,185.537613 249.064774,185.085785 249.429962,184.069641 
	C250.568008,177.011627 251.373520,170.517914 252.179031,164.024216 
	C252.141113,163.853638 252.103180,163.683044 252.383240,163.149048 
	C252.523300,161.857712 252.345367,160.929779 252.167450,160.001862 
	C252.456680,156.957169 252.745895,153.912460 253.366821,150.333221 
	C253.856888,148.873993 254.015244,147.949295 254.173599,147.024597 
	C254.134323,146.853577 254.095047,146.682556 254.377014,146.148499 
	C254.524368,144.857101 254.350449,143.928757 254.176544,143.000397 
	C254.461960,140.283203 254.747360,137.565994 255.412292,134.259842 
	C256.168396,130.436996 256.544952,127.203125 256.921478,123.969238 
	C256.958954,120.945900 256.996399,117.922554 257.462219,114.506577 
	C258.500824,114.599907 259.404388,114.960434 259.674377,115.591881 
	C261.646851,120.204926 263.137665,125.060478 265.477295,129.469727 
	C267.815796,133.876801 270.963348,137.854584 273.756195,142.020569 
	C273.756195,142.020569 273.898529,142.493134 273.961853,143.133469 
	C274.958130,146.912216 275.585510,150.184433 276.888763,153.160690 
	C279.458069,159.028259 282.296509,164.786057 285.227631,170.484344 
	C287.248779,174.413589 289.612701,178.166534 291.823456,181.998260 
	C292.535980,183.412308 293.248505,184.826340 294.100433,186.778625 
	C294.407135,187.561310 294.600861,187.782654 294.820953,187.980927 
	C294.820953,187.980927 294.980011,188.424820 294.967773,188.972168 
	C295.245148,190.763077 295.341797,192.093277 295.855103,193.236435 
	C299.821716,202.070358 303.717072,210.941910 307.950287,219.648285 
	C310.341003,224.565231 313.328522,229.192032 316.047241,233.949524 
	C316.047211,233.949539 316.005493,233.996948 316.016296,234.382156 
	C316.094055,235.883881 315.922180,237.094086 316.310669,238.084473 
	C316.576721,238.762665 317.623108,239.134750 318.320648,239.643661 
	C318.533936,238.726273 318.747192,237.808899 318.960449,236.891510 
	C318.960449,236.891510 319.055908,236.460892 319.430603,236.149658 
	C320.830597,233.544357 321.855896,231.250290 322.881195,228.956223 
	C322.920624,228.794235 322.960083,228.632248 323.387634,228.112488 
	C329.426483,220.793442 332.418610,212.698120 333.921844,203.967728 
	C333.921844,203.967728 333.937103,203.943375 334.271912,203.834549 
	C336.921661,199.668961 339.130402,195.544907 341.626831,191.603073 
	C342.246185,190.625168 343.797485,190.237488 344.920410,189.578506 
	C344.997162,190.776978 345.512238,192.168854 345.082092,193.143616 
	C341.315613,201.678787 337.356506,210.128677 333.501404,218.625107 
	C329.199585,228.105988 324.874573,237.577560 320.708832,247.118332 
	C319.089478,250.827271 317.877899,254.714218 315.978027,259.888702 
	C314.271667,256.891815 313.193085,255.303833 312.413513,253.580582 
	C305.306763,237.871475 298.349091,222.094223 291.151428,206.427139 
	C285.403992,193.916840 279.347290,181.548981 273.498901,169.084579 
	C270.754608,163.235764 268.271759,157.263016 265.462982,151.446594 
	C264.699921,149.866440 263.182465,148.650589 261.247406,146.365479 
	C258.072693,158.682983 257.610657,169.849930 258.044678,181.107162 
	C258.018005,181.834137 257.991333,182.561111 257.616455,183.766525 
	C257.196991,185.533096 257.125732,186.821243 257.054504,188.109375 
	C256.724731,192.116821 256.394989,196.124283 255.735245,200.720123 
	C254.937408,202.956482 254.110245,204.594788 254.065765,206.254074 
	C253.898972,212.476410 253.987839,218.705597 253.771469,225.288788 
	C253.375534,228.837509 253.188995,232.029648 252.992035,235.483459 
	C252.972946,236.097534 252.964249,236.449921 252.758347,237.163101 
	C252.376633,240.348724 252.192139,243.173584 251.869919,246.297852 
	C248.300415,250.883621 250.810349,255.495438 250.535492,259.986877 
	C247.241486,259.995239 244.395950,259.812439 241.584167,260.042358 
	C237.542175,260.372864 236.037338,258.768524 236.990952,254.839478 
	C237.463684,254.299515 237.936417,253.759567 238.928955,253.127716 
	C239.633347,253.052383 239.817932,253.068954 240.079590,253.254272 
	C240.430252,252.663895 240.703842,251.904770 240.985977,250.827393 
	C240.983582,250.297195 240.972626,250.085220 240.961670,249.873260 
	C240.961670,249.873260 241.078690,249.499527 241.440002,249.124680 
	C242.182236,245.159378 242.563156,241.568924 242.944092,237.978470 
	C242.995956,237.539856 243.047821,237.101227 243.320023,236.099609 
	C243.672867,234.989120 243.805359,234.441635 243.937866,233.894150 
	C243.937866,233.894150 244.014832,233.437759 244.370804,233.090515 
	C244.539841,231.495697 244.352905,230.248108 244.165970,229.000519 
	C244.452438,225.297134 244.738922,221.593750 245.418732,217.286942 
	C246.491714,215.222351 247.535492,213.820557 247.785156,212.289276 
	C248.654282,206.958923 249.516495,201.600281 249.849152,196.219482 
	C250.058105,192.839905 249.315308,189.401474 248.999496,185.989456 
z"/>
<path fill="#5D19E5" opacity="1.000000" stroke="none" 
	d="
M375.219482,213.978470 
	C375.165100,213.542892 375.110748,213.107300 375.235596,212.006119 
	C376.149994,206.328201 376.828735,201.324646 373.190674,196.990143 
	C373.145233,196.233597 373.099762,195.477066 373.310608,193.987549 
	C373.578552,189.655838 373.821808,186.040009 373.557861,182.461609 
	C372.809021,172.309174 371.852875,162.172028 370.924500,151.746582 
	C370.583435,150.976608 370.296265,150.488907 370.006653,149.626801 
	C370.000519,148.505081 369.996857,147.757751 369.920776,146.697113 
	C367.903961,142.767990 366.669891,145.026810 365.554260,146.968246 
	C363.649384,150.283188 361.853729,153.660873 360.004822,157.005371 
	C359.997467,156.998550 359.983490,156.988159 359.893005,156.745544 
	C359.216125,155.333252 358.629730,154.163559 358.041382,152.645096 
	C358.030457,151.831055 358.021484,151.365799 358.012512,150.900528 
	C358.012512,150.900528 358.132629,150.530014 358.489288,150.197235 
	C359.890076,148.238739 360.934235,146.613007 362.271942,144.968140 
	C363.068298,144.647354 363.571045,144.345718 364.073822,144.044083 
	C363.449432,143.683670 362.825012,143.323242 362.163025,142.689178 
	C362.088623,142.235107 362.051880,142.054688 362.015106,141.874252 
	C362.015106,141.874252 362.121185,141.490875 362.342224,141.128952 
	C362.778961,140.516312 362.921051,140.229187 362.989563,139.905655 
	C362.989563,139.905655 363.094360,139.521057 363.451843,139.174805 
	C365.192139,135.535538 366.574951,132.242538 367.957764,128.949539 
	C367.957764,128.949539 367.989746,129.004532 368.295837,128.878296 
	C369.731842,125.784065 370.861755,122.816048 371.991638,119.848038 
	C371.991638,119.848038 372.098145,119.473618 372.322144,119.114716 
	C372.763092,118.507149 372.912781,118.223053 372.995239,117.903534 
	C372.995239,117.903534 373.099243,117.506744 373.434326,117.174271 
	C374.574738,116.176750 375.380096,115.511711 376.895782,114.260109 
	C378.673157,130.392502 380.267853,145.703766 382.128784,160.982605 
	C382.462036,163.718582 383.896057,166.320465 384.821808,168.984268 
	C384.821808,168.984268 384.930054,169.470642 384.697205,170.080383 
	C384.529755,174.982895 384.277649,179.309250 384.727753,183.561295 
	C385.618073,191.972229 386.991760,200.330750 387.992157,208.731598 
	C389.444916,220.931259 390.708527,233.153488 392.178802,245.350891 
	C392.291748,246.287872 393.400330,247.104828 394.046112,247.977570 
	C394.046112,247.977570 394.005707,248.005585 394.039886,248.269928 
	C394.315887,249.048569 394.557739,249.562851 394.799561,250.077148 
	C394.799561,250.077148 394.896606,250.486649 395.045288,250.920685 
	C395.359833,251.647461 395.570374,251.903458 395.825562,252.122726 
	C395.825562,252.122726 395.932495,252.524887 396.103577,252.943222 
	C396.537292,253.571838 396.799896,253.782120 397.062531,253.992401 
	C397.062531,253.992401 396.999390,254.000824 397.147766,254.182068 
	C397.567810,254.570175 397.839508,254.777039 398.111206,254.983887 
	C400.505768,256.247437 402.900299,257.510986 405.622803,259.312561 
	C405.944458,260.157593 405.938171,260.464661 405.931915,260.771729 
	C405.277344,260.764374 404.622803,260.757050 403.272797,260.435974 
	C394.922546,260.083923 387.267731,260.042999 379.612915,260.009155 
	C377.583069,260.000183 375.319580,260.295013 376.005188,257.019257 
	C376.005188,257.019257 375.997101,256.994904 376.329834,256.890167 
	C377.104218,255.801941 377.545807,254.818466 377.987427,253.834991 
	C378.027008,253.440521 378.066589,253.046051 378.354004,251.995667 
	C378.274719,243.431473 377.987274,235.521072 377.566162,227.617783 
	C377.518127,226.716202 376.720978,225.854523 376.271179,224.974350 
	C376.205658,224.539612 376.140106,224.104889 376.249451,223.037628 
	C376.022705,219.596222 375.621094,216.787338 375.219482,213.978470 
z"/>
<path fill="#5E1EE1" opacity="1.000000" stroke="none" 
	d="
M360.012207,157.012207 
	C361.853729,153.660873 363.649384,150.283188 365.554260,146.968246 
	C366.669891,145.026810 367.903961,142.767990 369.646423,146.696564 
	C369.261475,147.017868 369.078552,147.026428 368.895599,147.035004 
	C363.986542,157.162598 358.904938,167.211075 354.215637,177.439407 
	C349.245209,188.280930 344.691315,199.312653 339.877197,210.226776 
	C332.096375,227.866776 324.251465,245.478516 316.060242,263.943878 
	C314.868195,262.205322 313.114838,260.266571 312.058228,258.002655 
	C306.830200,246.801025 301.784363,235.514359 296.677948,224.256027 
	C290.029755,209.598465 283.462402,194.903580 276.711853,180.293320 
	C272.109741,170.332886 267.253662,160.489807 262.007721,149.543884 
	C260.838745,160.619919 259.781219,170.640228 258.384216,180.883850 
	C257.610657,169.849930 258.072693,158.682983 261.247406,146.365479 
	C263.182465,148.650589 264.699921,149.866440 265.462982,151.446594 
	C268.271759,157.263016 270.754608,163.235764 273.498901,169.084579 
	C279.347290,181.548981 285.403992,193.916840 291.151428,206.427139 
	C298.349091,222.094223 305.306763,237.871475 312.413513,253.580582 
	C313.193085,255.303833 314.271667,256.891815 315.978027,259.888702 
	C317.877899,254.714218 319.089478,250.827271 320.708832,247.118332 
	C324.874573,237.577560 329.199585,228.105988 333.501404,218.625107 
	C337.356506,210.128677 341.315613,201.678787 345.082092,193.143616 
	C345.512238,192.168854 344.997162,190.776978 344.920410,189.578506 
	C343.797485,190.237488 342.246185,190.625168 341.626831,191.603073 
	C339.130402,195.544907 336.921661,199.668961 334.285278,203.829269 
	C335.784973,199.315292 337.529602,194.665543 339.456360,190.092529 
	C340.586334,187.410583 342.006317,184.850815 343.651703,182.474609 
	C344.984375,183.741684 345.961151,184.770264 346.937958,185.798828 
	C347.884491,184.783493 349.202179,183.921295 349.697845,182.719925 
	C350.638489,180.440140 350.868225,177.865616 351.819763,175.592026 
	C354.432404,169.349304 357.266052,163.199051 360.012207,157.012207 
z"/>
<path fill="#8B57F5" opacity="1.000000" stroke="none" 
	d="
M221.462143,122.716736 
	C214.843872,122.811104 209.622101,121.002663 207.053680,114.664360 
	C204.831802,109.181183 206.098419,104.452431 210.199310,100.371422 
	C214.489380,96.102142 218.555344,95.726868 225.437790,98.907791 
	C229.920059,100.979401 232.369003,105.685562 231.972961,111.466469 
	C231.633698,116.418388 228.243698,120.462570 223.164001,121.998276 
	C222.708038,122.136124 222.280487,122.367920 221.462143,122.716736 
z"/>
<path fill="#AC9659" opacity="1.000000" stroke="none" 
	d="
M318.846436,308.282654 
	C325.733795,300.301849 335.885376,301.775177 339.043518,310.802826 
	C340.398010,314.674835 338.823883,320.581573 335.869202,322.713928 
	C331.643707,325.763397 326.101807,325.622345 322.155060,322.752167 
	C316.931763,318.953644 317.239532,314.007050 318.846436,308.282654 
z"/>
<path fill="#885DE5" opacity="1.000000" stroke="none" 
	d="
M163.063980,117.176346 
	C161.112686,117.449371 159.162567,117.948929 157.209930,117.958977 
	C143.728928,118.028343 130.247421,117.995613 116.766075,117.995697 
	C114.974648,117.995712 113.183228,117.995705 109.998199,117.995705 
	C112.446480,120.688087 114.576988,122.198036 115.517052,124.252663 
	C117.073509,127.654549 118.809875,131.401764 118.830856,135.012985 
	C119.063904,175.122803 118.984749,215.234436 118.964119,255.345566 
	C118.963615,256.323822 118.666214,257.301910 118.273773,258.174011 
	C118.027206,218.309250 118.028107,178.550552 117.964836,138.791946 
	C117.961220,136.515457 117.433647,134.239777 117.149933,131.963730 
	C114.534691,124.180923 109.574936,119.342041 100.985672,118.904922 
	C100.398918,118.875053 99.858498,117.934723 100.105820,117.217651 
	C121.631401,117.070442 142.347687,117.123398 163.063980,117.176346 
z"/>
<path fill="#5D19E5" opacity="1.000000" stroke="none" 
	d="
M360.004822,157.005371 
	C357.266052,163.199051 354.432404,169.349304 351.819763,175.592026 
	C350.868225,177.865616 350.638489,180.440140 349.697845,182.719925 
	C349.202179,183.921295 347.884491,184.783493 346.937958,185.798828 
	C345.961151,184.770264 344.984375,183.741684 343.979584,182.327469 
	C343.951599,181.941818 344.082336,181.535278 344.470093,181.180634 
	C345.581329,178.875687 346.304810,176.925400 347.028320,174.975113 
	C347.028320,174.975113 347.077362,174.550095 347.290131,174.156052 
	C347.661804,173.470673 347.820740,173.179352 347.979645,172.888016 
	C347.979645,172.888016 348.100128,172.529129 348.456757,172.169632 
	C349.194458,170.524124 349.575500,169.238098 349.956573,167.952087 
	C349.956573,167.952087 349.994324,167.998322 350.186096,167.800858 
	C350.584717,167.062698 350.791534,166.522003 350.998322,165.981308 
	C350.998322,165.981308 351.006165,166.010818 351.206879,165.814178 
	C351.611481,165.084503 351.815338,164.551437 352.019226,164.018387 
	C352.019226,164.018387 352.000000,164.000000 352.335205,163.881958 
	C353.099426,162.490097 353.528473,161.216278 353.957520,159.942474 
	C353.957520,159.942474 353.978088,160.003876 354.266785,159.888000 
	C355.045410,158.850159 355.535400,157.928192 356.421509,157.003418 
	C357.872894,156.996475 358.928192,156.992310 359.983490,156.988159 
	C359.983490,156.988159 359.997467,156.998550 360.004822,157.005371 
M350.499756,173.525635 
	C350.499756,173.525635 350.485565,173.487015 350.499756,173.525635 
z"/>
<path fill="#E8CDFF" opacity="1.000000" stroke="none" 
	d="
M131.850128,124.998260 
	C132.117035,124.735245 132.383942,124.472229 132.917725,124.102921 
	C133.123642,144.450623 133.039474,164.904587 133.007538,185.358612 
	C132.968048,210.641434 132.971954,235.924347 132.905457,261.695190 
	C132.853821,262.183167 132.434586,262.104492 132.248734,261.575012 
	C132.042603,257.557129 132.008606,254.068787 132.004120,250.580399 
	C131.950272,208.719681 131.900757,166.858978 131.850128,124.998260 
z"/>
<path fill="#5F2BCC" opacity="1.000000" stroke="none" 
	d="
M394.008240,247.531189 
	C393.400330,247.104828 392.291748,246.287872 392.178802,245.350891 
	C390.708527,233.153488 389.444916,220.931259 387.992157,208.731598 
	C386.991760,200.330750 385.618073,191.972229 384.727753,183.561295 
	C384.277649,179.309250 384.529755,174.982895 384.659119,170.326599 
	C386.857880,185.380234 388.970154,200.784393 390.827911,216.219193 
	C392.063507,226.485077 392.935577,236.794739 394.008240,247.531189 
z"/>
<path fill="#BB98FF" opacity="1.000000" stroke="none" 
	d="
M117.090210,132.434570 
	C117.433647,134.239777 117.961220,136.515457 117.964836,138.791946 
	C118.028107,178.550552 118.027206,218.309250 118.077194,258.536011 
	C117.922432,259.557953 117.730736,260.111816 117.348846,260.893799 
	C117.105408,226.698563 117.047745,192.275223 117.002136,157.851898 
	C116.991112,149.536438 117.019966,141.220901 117.090210,132.434570 
z"/>
<path fill="#5F2BCC" opacity="1.000000" stroke="none" 
	d="
M384.886963,168.564133 
	C383.896057,166.320465 382.462036,163.718582 382.128784,160.982605 
	C380.267853,145.703766 378.673157,130.392502 376.895782,114.260109 
	C375.380096,115.511711 374.574738,116.176750 373.493958,116.978027 
	C373.923309,115.076088 374.628082,113.037918 375.332886,110.999748 
	C375.971100,111.011330 376.609314,111.022903 377.247528,111.034485 
	C381.142212,129.861053 381.928101,149.179626 384.886963,168.564133 
z"/>
<path fill="#5E1EE1" opacity="1.000000" stroke="none" 
	d="
M316.005249,233.572021 
	C313.328522,229.192032 310.341003,224.565231 307.950287,219.648285 
	C303.717072,210.941910 299.821716,202.070358 295.855103,193.236435 
	C295.341797,192.093277 295.245148,190.763077 295.000336,189.205688 
	C297.787415,194.179092 300.718781,199.378296 303.230103,204.773056 
	C307.610779,214.183426 311.732788,223.714218 316.005249,233.572021 
z"/>
<path fill="#5E1EE1" opacity="1.000000" stroke="none" 
	d="
M291.882568,181.623383 
	C289.612701,178.166534 287.248779,174.413589 285.227631,170.484344 
	C282.296509,164.786057 279.458069,159.028259 276.888763,153.160690 
	C275.585510,150.184433 274.958130,146.912216 274.043976,143.366165 
	C280.022400,155.721848 285.982025,168.485168 291.882568,181.623383 
z"/>
<path fill="#5F2BCC" opacity="1.000000" stroke="none" 
	d="
M236.612030,254.880905 
	C236.037338,258.768524 237.542175,260.372864 241.584167,260.042358 
	C244.395950,259.812439 247.241486,259.995239 250.925385,259.991943 
	C253.195343,259.265778 254.611862,258.541290 256.028381,257.816803 
	C258.615601,258.414856 261.202789,259.012878 263.790009,259.610931 
	C263.763916,259.896210 263.737823,260.181519 263.711731,260.466827 
	C250.282013,260.466827 236.852295,260.466827 223.422577,260.466827 
	C223.306244,260.239410 223.189896,260.011963 223.073547,259.784546 
	C227.460068,258.163818 231.846588,256.543091 236.612030,254.880905 
M233.078384,259.606018 
	C233.078384,259.606018 233.022186,259.402802 233.022186,259.402802 
	C233.022186,259.402802 232.954758,259.603363 233.078384,259.606018 
z"/>
<path fill="#5E1EE1" opacity="1.000000" stroke="none" 
	d="
M273.843262,141.658630 
	C270.963348,137.854584 267.815796,133.876801 265.477295,129.469727 
	C263.137665,125.060478 261.646851,120.204926 259.674377,115.591881 
	C259.404388,114.960434 258.500824,114.599907 257.537537,114.059044 
	C257.715393,113.112801 258.246338,112.221451 258.777283,111.330109 
	C259.496185,111.883194 260.542267,112.282867 260.884369,113.012596 
	C265.291473,122.413208 269.598206,131.860901 273.843262,141.658630 
z"/>
<path fill="#5F2BCC" opacity="1.000000" stroke="none" 
	d="
M370.978333,152.028870 
	C371.852875,162.172028 372.809021,172.309174 373.557861,182.461609 
	C373.821808,186.040009 373.578552,189.655838 373.382050,193.614014 
	C372.153168,181.853653 371.131104,169.731873 370.038635,157.616440 
	C369.894012,156.012360 369.391205,154.440567 369.418945,152.429504 
	C370.181824,152.013077 370.580078,152.020981 370.978333,152.028870 
z"/>
<path fill="#D3BAFC" opacity="1.000000" stroke="none" 
	d="
M163.305450,117.114471 
	C142.347687,117.123398 121.631401,117.070442 100.444160,117.057068 
	C100.769669,116.733292 101.566124,116.052933 102.362602,116.052887 
	C122.795738,116.051819 143.228867,116.121780 163.850830,116.578079 
	C164.039642,116.976768 163.546921,117.052597 163.305450,117.114471 
z"/>
<path fill="#5E1EE1" opacity="1.000000" stroke="none" 
	d="
M248.642136,186.218735 
	C249.315308,189.401474 250.058105,192.839905 249.849152,196.219482 
	C249.516495,201.600281 248.654282,206.958923 247.785156,212.289276 
	C247.535492,213.820557 246.491714,215.222351 245.491501,216.840881 
	C246.018036,209.924042 246.917953,202.855576 247.687775,195.772980 
	C248.024002,192.679565 248.093918,189.557220 248.642136,186.218735 
z"/>
<path fill="#5E1EE1" opacity="1.000000" stroke="none" 
	d="
M253.980865,224.932205 
	C253.987839,218.705597 253.898972,212.476410 254.065765,206.254074 
	C254.110245,204.594788 254.937408,202.956482 255.761703,201.137817 
	C256.398346,202.338303 257.014130,203.737701 256.901611,205.075867 
	C256.368134,211.421585 255.635986,217.750610 254.692108,224.510437 
	C254.409607,224.935318 253.980865,224.932205 253.980865,224.932205 
z"/>
<path fill="#5E1EE1" opacity="1.000000" stroke="none" 
	d="
M333.592590,204.102966 
	C332.418610,212.698120 329.426483,220.793442 323.468994,227.876007 
	C326.529297,220.077591 329.896301,212.157883 333.592590,204.102966 
z"/>
<path fill="#5F2BCC" opacity="1.000000" stroke="none" 
	d="
M375.621155,257.039734 
	C375.319580,260.295013 377.583069,260.000183 379.612915,260.009155 
	C387.267731,260.042999 394.922546,260.083923 403.082489,260.164886 
	C396.014008,260.458374 388.441620,260.761078 380.866333,260.940430 
	C376.359589,261.047180 371.848236,260.959991 367.304413,259.852661 
	C369.948639,258.921844 372.592865,257.991028 375.621155,257.039734 
z"/>
<path fill="#5E1EE1" opacity="1.000000" stroke="none" 
	d="
M255.867432,257.498535 
	C254.611862,258.541290 253.195343,259.265778 251.388947,259.985168 
	C250.810349,255.495438 248.300415,250.883621 252.078995,246.318192 
	C252.425812,246.039093 252.843765,246.083237 252.843765,246.083237 
	C253.347626,249.898438 251.813751,254.239319 255.867432,257.498535 
z"/>
<path fill="#5E1EE1" opacity="1.000000" stroke="none" 
	d="
M251.989014,164.376404 
	C251.373520,170.517914 250.568008,177.011627 249.494751,183.736069 
	C250.084351,177.554062 250.941666,171.141327 251.989014,164.376404 
z"/>
<path fill="#5F2BCC" opacity="1.000000" stroke="none" 
	d="
M376.186646,225.424927 
	C376.720978,225.854523 377.518127,226.716202 377.566162,227.617783 
	C377.987274,235.521072 378.274719,243.431473 378.405151,251.702606 
	C377.506317,243.335449 376.804199,234.605484 376.186646,225.424927 
z"/>
<path fill="#855BD7" opacity="1.000000" stroke="none" 
	d="
M154.581192,196.074020 
	C152.383362,196.448303 149.728287,196.523376 147.191772,197.110641 
	C145.990509,197.388763 145.015961,198.646194 143.957520,199.790985 
	C142.263504,199.261230 140.550674,198.400436 138.837830,197.539642 
	C138.972137,197.021408 139.106430,196.503159 139.240738,195.984924 
	C144.218018,195.984924 149.195297,195.984924 154.581192,196.074020 
z"/>
<path fill="#BB98FF" opacity="1.000000" stroke="none" 
	d="
M134.291061,123.895630 
	C143.291519,123.723740 152.779556,123.594643 162.661819,123.602783 
	C153.630249,123.806160 144.204437,123.872292 134.291061,123.895630 
z"/>
<path fill="#5F2BCC" opacity="1.000000" stroke="none" 
	d="
M373.122192,197.415543 
	C376.828735,201.324646 376.149994,206.328201 375.192810,211.679001 
	C374.331787,207.291977 373.692719,202.566452 373.122192,197.415543 
z"/>
<path fill="#5F2BCC" opacity="1.000000" stroke="none" 
	d="
M242.596207,238.202972 
	C242.563156,241.568924 242.182236,245.159378 241.495667,248.936935 
	C241.542801,245.558517 241.895569,241.992996 242.596207,238.202972 
z"/>
<path fill="#5F2BCC" opacity="1.000000" stroke="none" 
	d="
M367.607819,129.059097 
	C366.574951,132.242538 365.192139,135.535538 363.507568,138.983429 
	C364.556488,135.815094 365.907166,132.491882 367.607819,129.059097 
z"/>
<path fill="#5F2BCC" opacity="1.000000" stroke="none" 
	d="
M253.771469,225.288788 
	C253.980865,224.932205 254.409607,224.935318 254.623932,224.927124 
	C254.587204,228.071838 254.336182,231.224747 253.733398,234.775970 
	C253.381638,235.174255 253.002457,235.221786 253.002441,235.221786 
	C253.188995,232.029648 253.375534,228.837509 253.771469,225.288788 
z"/>
<path fill="#5E1EE1" opacity="1.000000" stroke="none" 
	d="
M256.585388,124.188751 
	C256.544952,127.203125 256.168396,130.436996 255.480957,133.834763 
	C255.529800,130.801849 255.889526,127.605057 256.585388,124.188751 
z"/>
<path fill="#5F2BCC" opacity="1.000000" stroke="none" 
	d="
M253.016754,245.696442 
	C252.843765,246.083237 252.425812,246.039093 252.216736,246.018768 
	C252.192139,243.173584 252.376633,240.348724 252.977264,237.190109 
	C253.393387,236.856339 253.832870,236.857529 253.832855,236.857529 
	C253.618484,239.674896 253.404129,242.492279 253.016754,245.696442 
z"/>
<path fill="#5F2BCC" opacity="1.000000" stroke="none" 
	d="
M361.978394,144.987289 
	C360.934235,146.613007 359.890076,148.238739 358.550995,150.012512 
	C359.278442,147.484344 360.300842,144.808136 361.669159,142.003082 
	C362.051880,142.054688 362.088623,142.235107 362.106323,143.024841 
	C362.050964,144.085205 362.014679,144.536240 361.978394,144.987289 
z"/>
<path fill="#5F2BCC" opacity="1.000000" stroke="none" 
	d="
M371.647705,119.987251 
	C370.861755,122.816048 369.731842,125.784065 368.270386,128.858932 
	C369.060486,126.019348 370.182129,123.072906 371.647705,119.987251 
z"/>
<path fill="#5E1EE1" opacity="1.000000" stroke="none" 
	d="
M322.570221,229.106171 
	C321.855896,231.250290 320.830597,233.544357 319.485657,235.936111 
	C320.197113,233.774567 321.228180,231.515335 322.570221,229.106171 
z"/>
<path fill="#5E1EE1" opacity="1.000000" stroke="none" 
	d="
M318.649841,236.823853 
	C318.747192,237.808899 318.533936,238.726273 318.320648,239.643661 
	C317.623108,239.134750 316.576721,238.762665 316.310669,238.084473 
	C315.922180,237.094086 316.094055,235.883881 316.041382,234.362640 
	C316.816864,234.890686 317.578033,235.823456 318.649841,236.823853 
z"/>
<path fill="#5F2BCC" opacity="1.000000" stroke="none" 
	d="
M406.294922,260.853149 
	C405.938171,260.464661 405.944458,260.157593 405.969025,259.390228 
	C408.220673,259.033051 410.453979,259.136169 412.687317,259.239288 
	C412.677551,259.804382 412.667786,260.369507 412.658051,260.934601 
	C410.657990,260.934601 408.657959,260.934601 406.294922,260.853149 
z"/>
<path fill="#855BD7" opacity="1.000000" stroke="none" 
	d="
M145.026794,201.321533 
	C148.390396,201.191895 150.421661,202.975433 150.930878,206.834610 
	C149.013428,205.355148 147.078873,203.496109 145.026794,201.321533 
z"/>
<path fill="#5F2BCC" opacity="1.000000" stroke="none" 
	d="
M375.130798,214.412033 
	C375.621094,216.787338 376.022705,219.596222 376.211487,222.708969 
	C375.679810,220.290436 375.360992,217.568008 375.130798,214.412033 
z"/>
<path fill="#5E1EE1" opacity="1.000000" stroke="none" 
	d="
M359.893005,156.745544 
	C358.928192,156.992310 357.872894,156.996475 356.417175,156.655914 
	C356.009583,155.847733 356.002472,155.384247 355.995331,154.920776 
	C355.995331,154.920776 356.042542,154.538910 356.356384,154.252563 
	C357.127899,153.642090 357.585632,153.317978 358.043335,152.993866 
	C358.629730,154.163559 359.216125,155.333252 359.893005,156.745544 
z"/>
<path fill="#5F2BCC" opacity="1.000000" stroke="none" 
	d="
M346.709045,175.129547 
	C346.304810,176.925400 345.581329,178.875687 344.545593,180.980896 
	C344.952118,179.185211 345.670929,177.234589 346.709045,175.129547 
z"/>
<path fill="#5F2BCC" opacity="1.000000" stroke="none" 
	d="
M355.699219,155.048538 
	C356.002472,155.384247 356.009583,155.847733 356.021057,156.658722 
	C355.535400,157.928192 355.045410,158.850159 354.239990,159.869797 
	C354.417389,158.370407 354.910248,156.773361 355.699219,155.048538 
z"/>
<path fill="#5E1EE1" opacity="1.000000" stroke="none" 
	d="
M244.102081,229.397491 
	C244.352905,230.248108 244.539841,231.495697 244.446228,232.871735 
	C244.123199,231.931610 244.080688,230.863037 244.102081,229.397491 
z"/>
<path fill="#5E1EE1" opacity="1.000000" stroke="none" 
	d="
M257.369873,187.906128 
	C257.125732,186.821243 257.196991,185.533096 257.547302,184.123657 
	C257.779358,185.235855 257.732300,186.469376 257.369873,187.906128 
z"/>
<path fill="#5F2BCC" opacity="1.000000" stroke="none" 
	d="
M349.632660,168.096237 
	C349.575500,169.238098 349.194458,170.524124 348.516418,171.989990 
	C348.582550,170.860016 348.945648,169.550201 349.632660,168.096237 
z"/>
<path fill="#5F2BCC" opacity="1.000000" stroke="none" 
	d="
M353.633118,160.071106 
	C353.528473,161.216278 353.099426,162.490097 352.345703,163.890610 
	C352.450256,162.744781 352.879486,161.472260 353.633118,160.071106 
z"/>
<path fill="#5E1EE1" opacity="1.000000" stroke="none" 
	d="
M252.106018,160.374344 
	C252.345367,160.929779 252.523300,161.857712 252.437958,162.892700 
	C252.131317,162.248795 252.087967,161.497818 252.106018,160.374344 
z"/>
<path fill="#5E1EE1" opacity="1.000000" stroke="none" 
	d="
M254.112152,143.372345 
	C254.350449,143.928757 254.524368,144.857101 254.434784,145.891693 
	C254.130112,145.246719 254.088943,144.495514 254.112152,143.372345 
z"/>
<path fill="#5F2BCC" opacity="1.000000" stroke="none" 
	d="
M377.669373,253.946045 
	C377.545807,254.818466 377.104218,255.801941 376.342072,256.894501 
	C376.464813,256.021423 376.908081,255.039276 377.669373,253.946045 
z"/>
<path fill="#5E1EE1" opacity="1.000000" stroke="none" 
	d="
M254.028336,147.323364 
	C254.015244,147.949295 253.856888,148.873993 253.437256,149.898300 
	C253.411697,149.205994 253.647385,148.414062 254.028336,147.323364 
z"/>
<path fill="#885DE5" opacity="1.000000" stroke="none" 
	d="
M168.633728,117.072739 
	C167.869507,117.265610 166.704239,117.397583 165.273941,117.368385 
	C166.083496,117.142082 167.158112,117.076958 168.633728,117.072739 
z"/>
<path fill="#5F2BCC" opacity="1.000000" stroke="none" 
	d="
M358.041382,152.645096 
	C357.585632,153.317978 357.127899,153.642090 356.405579,154.066559 
	C356.545380,153.147232 356.949768,152.127548 357.683350,151.004196 
	C358.021484,151.365799 358.030457,151.831055 358.041382,152.645096 
z"/>
<path fill="#5E1EE1" opacity="1.000000" stroke="none" 
	d="
M370.924500,151.746597 
	C370.580078,152.020981 370.181824,152.013077 369.484619,152.006973 
	C369.142029,151.565582 369.098328,151.122421 369.320740,150.342361 
	C369.586792,150.005478 370.009064,150.001221 370.009094,150.001221 
	C370.296265,150.488907 370.583435,150.976608 370.924500,151.746597 
z"/>
<path fill="#5F2BCC" opacity="1.000000" stroke="none" 
	d="
M370.006622,149.626816 
	C370.009064,150.001221 369.586792,150.005478 369.376129,150.011810 
	C369.102417,149.271927 369.039368,148.525696 368.935974,147.407227 
	C369.078552,147.026428 369.261475,147.017868 369.718811,147.009872 
	C369.996857,147.757751 370.000519,148.505081 370.006622,149.626816 
z"/>
<path fill="#5F2BCC" opacity="1.000000" stroke="none" 
	d="
M240.002533,253.085541 
	C239.817932,253.068954 239.633347,253.052383 239.171997,253.006012 
	C239.029968,252.369843 239.164719,251.763474 239.682785,251.109894 
	C240.066086,251.062683 240.281891,251.273956 240.212982,251.570816 
	C240.096909,252.273636 240.049728,252.679581 240.002533,253.085541 
z"/>
<path fill="#5E1EE1" opacity="1.000000" stroke="none" 
	d="
M253.889572,236.575928 
	C253.832870,236.857529 253.393387,236.856339 253.174469,236.829330 
	C252.964249,236.449921 252.972946,236.097534 252.992035,235.483459 
	C253.002457,235.221786 253.381638,235.174255 253.572784,235.171600 
	C253.824722,235.544067 253.885498,235.919205 253.889572,236.575928 
z"/>
<path fill="#5F2BCC" opacity="1.000000" stroke="none" 
	d="
M394.898193,249.756927 
	C394.557739,249.562851 394.315887,249.048569 394.050903,248.248169 
	C394.350739,248.453598 394.673767,248.945145 394.898193,249.756927 
z"/>
<path fill="#5F2BCC" opacity="1.000000" stroke="none" 
	d="
M351.725769,164.123169 
	C351.815338,164.551437 351.611481,165.084503 351.191833,165.811569 
	C351.128143,165.413040 351.280243,164.820496 351.725769,164.123169 
z"/>
<path fill="#5F2BCC" opacity="1.000000" stroke="none" 
	d="
M350.704712,166.092438 
	C350.791534,166.522003 350.584717,167.062698 350.156464,167.797638 
	C350.093719,167.395767 350.252411,166.799667 350.704712,166.092438 
z"/>
<path fill="#5F2BCC" opacity="1.000000" stroke="none" 
	d="
M243.663544,234.049500 
	C243.805359,234.441635 243.672867,234.989120 243.382233,235.773834 
	C243.279160,235.408997 243.334198,234.806915 243.663544,234.049500 
z"/>
<path fill="#5F2BCC" opacity="1.000000" stroke="none" 
	d="
M396.977264,253.737000 
	C396.799896,253.782120 396.537292,253.571838 396.136047,253.148743 
	C396.295654,253.117828 396.593811,253.299713 396.977264,253.737000 
z"/>
<path fill="#5F2BCC" opacity="1.000000" stroke="none" 
	d="
M372.716553,117.986862 
	C372.912781,118.223053 372.763092,118.507149 372.372711,118.926758 
	C372.278778,118.755196 372.358307,118.412689 372.716553,117.986862 
z"/>
<path fill="#885DE5" opacity="1.000000" stroke="none" 
	d="
M221.916748,262.773560 
	C221.625351,262.839752 221.425690,262.598602 221.153290,262.120392 
	C221.358200,262.103851 221.667511,262.298126 221.916748,262.773560 
z"/>
<path fill="#885DE5" opacity="1.000000" stroke="none" 
	d="
M221.028549,261.696594 
	C220.827591,261.756287 220.571976,261.540222 220.170288,261.118561 
	C220.340775,261.082245 220.657333,261.251526 221.028549,261.696594 
z"/>
<path fill="#885DE5" opacity="1.000000" stroke="none" 
	d="
M220.022491,260.704193 
	C219.828125,260.758240 219.570801,260.540466 219.167664,260.114624 
	C219.334427,260.081818 219.646973,260.257111 220.022491,260.704193 
z"/>
<path fill="#885DE5" opacity="1.000000" stroke="none" 
	d="
M219.020752,259.709473 
	C218.831345,259.759491 218.572647,259.539917 218.166809,259.111267 
	C218.330261,259.081421 218.640854,259.260681 219.020752,259.709473 
z"/>
<path fill="#5F2BCC" opacity="1.000000" stroke="none" 
	d="
M347.685486,172.967865 
	C347.820740,173.179352 347.661804,173.470673 347.331573,173.946182 
	C347.237274,173.769470 347.314270,173.408600 347.685486,172.967865 
z"/>
<path fill="#885DE5" opacity="1.000000" stroke="none" 
	d="
M218.026611,258.713135 
	C217.838242,258.757355 217.579666,258.533722 217.183807,258.093262 
	C217.349823,258.065979 217.653107,258.255615 218.026611,258.713135 
z"/>
<path fill="#885DE5" opacity="1.000000" stroke="none" 
	d="
M216.008011,256.713684 
	C215.834167,256.758972 215.569489,256.551025 215.161835,256.132385 
	C215.318298,256.101257 215.617752,256.280853 216.008011,256.713684 
z"/>
<path fill="#885DE5" opacity="1.000000" stroke="none" 
	d="
M214.999298,255.718048 
	C214.816895,255.767014 214.558609,255.556122 214.159698,255.136719 
	C214.320526,255.104858 214.621979,255.281525 214.999298,255.718048 
z"/>
<path fill="#5F2BCC" opacity="1.000000" stroke="none" 
	d="
M398.013184,254.730042 
	C397.839508,254.777039 397.567810,254.570175 397.150635,254.150345 
	C397.308502,254.116989 397.611816,254.296585 398.013184,254.730042 
z"/>
<path fill="#5F2BCC" opacity="1.000000" stroke="none" 
	d="
M362.710327,139.988968 
	C362.921051,140.229187 362.778961,140.516312 362.387604,140.935303 
	C362.285004,140.759811 362.358032,140.416046 362.710327,139.988968 
z"/>
<path fill="#885DE5" opacity="1.000000" stroke="none" 
	d="
M213.989456,254.724777 
	C213.813202,254.771210 213.554169,254.563614 213.155670,254.148102 
	C213.313034,254.117035 213.609848,254.293900 213.989456,254.724777 
z"/>
<path fill="#885DE5" opacity="1.000000" stroke="none" 
	d="
M204.985962,244.718002 
	C204.760315,244.821457 204.505356,244.615143 204.158600,244.147980 
	C204.320175,244.114243 204.616806,244.287949 204.985962,244.718002 
z"/>
<path fill="#885DE5" opacity="1.000000" stroke="none" 
	d="
M212.981400,253.726593 
	C212.760162,253.825027 212.504318,253.616241 212.153442,253.147766 
	C212.312271,253.116959 212.608383,253.294052 212.981400,253.726593 
z"/>
<path fill="#885DE5" opacity="1.000000" stroke="none" 
	d="
M211.981537,252.726807 
	C211.760498,252.824738 211.504547,252.615509 211.153351,252.146545 
	C211.312057,252.116043 211.608231,252.293655 211.981537,252.726807 
z"/>
<path fill="#5F2BCC" opacity="1.000000" stroke="none" 
	d="
M395.878601,251.831085 
	C395.570374,251.903458 395.359833,251.647461 395.099579,251.123978 
	C395.314026,251.108643 395.622803,251.324051 395.878601,251.831085 
z"/>
<path fill="#5E1EE1" opacity="1.000000" stroke="none" 
	d="
M294.832550,187.726807 
	C294.600861,187.782654 294.407135,187.561310 294.128906,187.125671 
	C294.293396,187.113876 294.568756,187.293274 294.832550,187.726807 
z"/>
<path fill="#885DE5" opacity="1.000000" stroke="none" 
	d="
M210.981842,251.726379 
	C210.803329,251.769974 210.546524,251.557007 210.152435,251.133423 
	C210.311295,251.105133 210.607422,251.287491 210.981842,251.726379 
z"/>
<path fill="#5F2BCC" opacity="1.000000" stroke="none" 
	d="
M240.701355,249.934860 
	C240.972626,250.085220 240.983582,250.297195 240.809601,250.845367 
	C240.624680,251.181595 240.281891,251.273956 240.281891,251.273956 
	C240.281891,251.273956 240.066086,251.062683 239.958435,250.956528 
	C240.047531,250.565735 240.244293,250.281097 240.701355,249.934860 
z"/>
<path fill="#885DE5" opacity="1.000000" stroke="none" 
	d="
M209.911713,249.773651 
	C209.613373,249.842972 209.414810,249.603973 209.149048,249.126099 
	C209.357803,249.108109 209.667709,249.300797 209.911713,249.773651 
z"/>
<path fill="#885DE5" opacity="1.000000" stroke="none" 
	d="
M202.986954,242.721451 
	C202.808273,242.765488 202.550629,242.553070 202.156158,242.129654 
	C202.315582,242.100769 202.611786,242.282883 202.986954,242.721451 
z"/>
<path fill="#885DE5" opacity="1.000000" stroke="none" 
	d="
M209.024109,248.698395 
	C208.825592,248.756531 208.570541,248.541214 208.170547,248.120361 
	C208.339600,248.084854 208.653595,248.254898 209.024109,248.698395 
z"/>
<path fill="#885DE5" opacity="1.000000" stroke="none" 
	d="
M208.026657,247.699921 
	C207.828262,247.757904 207.571457,247.541565 207.168488,247.118652 
	C207.337631,247.083252 207.652924,247.254440 208.026657,247.699921 
z"/>
<path fill="#885DE5" opacity="1.000000" stroke="none" 
	d="
M203.984680,243.719086 
	C203.759918,243.820145 203.504654,243.611679 203.157166,243.141525 
	C203.317993,243.109512 203.614410,243.286087 203.984680,243.719086 
z"/>
<path fill="#885DE5" opacity="1.000000" stroke="none" 
	d="
M207.013153,246.711807 
	C206.826324,246.764664 206.567505,246.553787 206.166412,246.135071 
	C206.329819,246.100830 206.635483,246.274460 207.013153,246.711807 
z"/>
<path fill="#885DE5" opacity="1.000000" stroke="none" 
	d="
M205.994598,245.718246 
	C205.771912,245.821396 205.513977,245.615372 205.161438,245.148056 
	C205.321472,245.114517 205.618973,245.288620 205.994598,245.718246 
z"/>
<path fill="#855BD7" opacity="1.000000" stroke="none" 
	d="
M131.650970,125.359680 
	C131.900757,166.858978 131.950272,208.719681 132.004120,250.580399 
	C132.008606,254.068787 132.042603,257.557129 132.045074,261.511658 
	C131.683472,260.224731 131.041885,258.472076 131.039474,256.718567 
	C130.981491,214.528976 130.987183,172.339279 131.009323,130.149628 
	C131.010101,128.673370 131.297852,127.197266 131.650970,125.359680 
z"/>
<path fill="#5E1EE1" opacity="1.000000" stroke="none" 
	d="
M240.212982,251.570816 
	C240.281891,251.273956 240.624680,251.181595 240.801056,251.163620 
	C240.703842,251.904770 240.430252,252.663895 240.079605,253.254272 
	C240.049728,252.679581 240.096909,252.273636 240.212982,251.570816 
z"/>
<path fill="#5E1EE1" opacity="1.000000" stroke="none" 
	d="
M362.271973,144.968140 
	C362.014679,144.536240 362.050964,144.085205 362.143951,143.298492 
	C362.825012,143.323242 363.449432,143.683670 364.073822,144.044083 
	C363.571045,144.345718 363.068298,144.647354 362.271973,144.968140 
z"/>
<path fill="#5E1EE1" opacity="1.000000" stroke="none" 
	d="
M350.492676,173.506317 
	C350.485565,173.487015 350.499756,173.525635 350.492676,173.506317 
z"/>
<path fill="#5E1EE1" opacity="1.000000" stroke="none" 
	d="
M233.016571,259.604675 
	C232.954758,259.603363 233.022186,259.402802 233.022186,259.402802 
	C233.022186,259.402802 233.078384,259.606018 233.016571,259.604675 
z"/>
</svg>